<svg xmlns="http://www.w3.org/2000/svg" width="26.5" height="26.5" viewBox="0 0 26.5 26.5">
  <g id="Icon_feather-settings" data-name="Icon feather-settings" transform="translate(-0.5 -0.5)">
    <path id="Tracé_1" data-name="Tracé 1" d="M20.182,16.841A3.341,3.341,0,1,1,16.841,13.5,3.341,3.341,0,0,1,20.182,16.841Z" transform="translate(-3.091 -3.091)" fill="none" stroke="#5373c6" stroke-linecap="round" stroke-linejoin="round" stroke-width="2"/>
    <path id="Tracé_2" data-name="Tracé 2" d="M21.991,17.091a1.838,1.838,0,0,0,.368,2.027l.067.067a2.229,2.229,0,1,1-3.152,3.152l-.067-.067a1.852,1.852,0,0,0-3.14,1.314v.189a2.227,2.227,0,1,1-4.455,0v-.1a1.838,1.838,0,0,0-1.2-1.682,1.838,1.838,0,0,0-2.027.368l-.067.067a2.229,2.229,0,1,1-3.152-3.152l.067-.067a1.852,1.852,0,0,0-1.314-3.14H3.727a2.227,2.227,0,1,1,0-4.455h.1a1.837,1.837,0,0,0,1.682-1.2,1.838,1.838,0,0,0-.368-2.027l-.067-.067A2.229,2.229,0,1,1,8.226,5.164l.067.067A1.838,1.838,0,0,0,10.32,5.6h.089a1.838,1.838,0,0,0,1.114-1.682V3.727a2.227,2.227,0,1,1,4.455,0v.1a1.852,1.852,0,0,0,3.14,1.314l.067-.067a2.229,2.229,0,1,1,3.152,3.152l-.067.067A1.837,1.837,0,0,0,21.9,10.32v.089a1.838,1.838,0,0,0,1.682,1.114h.189a2.227,2.227,0,1,1,0,4.455h-.1a1.838,1.838,0,0,0-1.682,1.114Z" fill="none" stroke="#5373c6" stroke-linecap="round" stroke-linejoin="round" stroke-width="2"/>
  </g>
</svg>